<mxfile host="app.diagrams.net" modified="2022-04-20T06:59:51.251Z" agent="5.0 (Windows)" etag="2lmv4HHozvKQnPkuxlCh" version="17.4.5" type="github">
  <diagram name="Page-1" id="97916047-d0de-89f5-080d-49f4d83e522f">
    <mxGraphModel dx="1896" dy="963" grid="1" gridSize="10" guides="1" tooltips="1" connect="1" arrows="1" fold="1" page="1" pageScale="1.5" pageWidth="1169" pageHeight="827" background="none" math="0" shadow="0">
      <root>
        <mxCell id="0" />
        <mxCell id="1" parent="0" />
        <mxCell id="2" value="IShipCallForList" style="rounded=1;fillColor=#00CC66;strokeColor=none;shadow=1;gradientColor=none;fontStyle=1;fontColor=#FFFFFF;fontSize=21&#xa;;" parent="1" vertex="1">
          <mxGeometry x="672" y="180" width="200" height="60" as="geometry" />
        </mxCell>
        <mxCell id="lcggfKQUq6D2q7CxVZYy-72" style="edgeStyle=none;rounded=0;orthogonalLoop=1;jettySize=auto;html=1;entryX=0.59;entryY=0.833;entryDx=0;entryDy=0;entryPerimeter=0;" parent="1" source="3" target="2" edge="1">
          <mxGeometry relative="1" as="geometry" />
        </mxCell>
        <mxCell id="3" value="IRouteForShipCallList" style="rounded=1;fillColor=#10739E;strokeColor=none;shadow=1;gradientColor=none;fontStyle=1;fontColor=#FFFFFF;fontSize=21&#xa;;" parent="1" vertex="1">
          <mxGeometry x="540" y="310" width="280" height="70" as="geometry" />
        </mxCell>
        <mxCell id="lcggfKQUq6D2q7CxVZYy-68" style="edgeStyle=none;rounded=0;orthogonalLoop=1;jettySize=auto;html=1;exitX=0;exitY=0.5;exitDx=0;exitDy=0;" parent="1" source="lcggfKQUq6D2q7CxVZYy-59" edge="1">
          <mxGeometry relative="1" as="geometry">
            <mxPoint x="860" y="210" as="targetPoint" />
          </mxGeometry>
        </mxCell>
        <mxCell id="lcggfKQUq6D2q7CxVZYy-59" value="Voyage" style="rounded=1;fillColor=#66B2FF;strokeColor=none;shadow=1;gradientColor=none;fontStyle=1;fontColor=#FFFFFF;fontSize=21&#xa;;" parent="1" vertex="1">
          <mxGeometry x="1400" y="354" width="200" height="60" as="geometry" />
        </mxCell>
        <mxCell id="lcggfKQUq6D2q7CxVZYy-69" style="edgeStyle=none;rounded=0;orthogonalLoop=1;jettySize=auto;html=1;exitX=0;exitY=0.5;exitDx=0;exitDy=0;" parent="1" source="lcggfKQUq6D2q7CxVZYy-60" edge="1">
          <mxGeometry relative="1" as="geometry">
            <mxPoint x="860" y="210" as="targetPoint" />
          </mxGeometry>
        </mxCell>
        <mxCell id="lcggfKQUq6D2q7CxVZYy-60" value="Arrival" style="rounded=1;fillColor=#66B2FF;strokeColor=none;shadow=1;gradientColor=none;fontStyle=1;fontColor=#FFFFFF;fontSize=21&#xa;;" parent="1" vertex="1">
          <mxGeometry x="1400" y="436" width="200" height="60" as="geometry" />
        </mxCell>
        <mxCell id="lcggfKQUq6D2q7CxVZYy-70" style="edgeStyle=none;rounded=0;orthogonalLoop=1;jettySize=auto;html=1;exitX=0;exitY=0.5;exitDx=0;exitDy=0;" parent="1" source="lcggfKQUq6D2q7CxVZYy-61" edge="1">
          <mxGeometry relative="1" as="geometry">
            <mxPoint x="860" y="210" as="targetPoint" />
          </mxGeometry>
        </mxCell>
        <mxCell id="lcggfKQUq6D2q7CxVZYy-61" value="Departure" style="rounded=1;fillColor=#66B2FF;strokeColor=none;shadow=1;gradientColor=none;fontStyle=1;fontColor=#FFFFFF;fontSize=21&#xa;;" parent="1" vertex="1">
          <mxGeometry x="1400" y="518" width="200" height="60" as="geometry" />
        </mxCell>
        <mxCell id="lcggfKQUq6D2q7CxVZYy-71" style="edgeStyle=none;rounded=0;orthogonalLoop=1;jettySize=auto;html=1;exitX=0;exitY=0.5;exitDx=0;exitDy=0;" parent="1" source="lcggfKQUq6D2q7CxVZYy-62" edge="1">
          <mxGeometry relative="1" as="geometry">
            <mxPoint x="870" y="220" as="targetPoint" />
          </mxGeometry>
        </mxCell>
        <mxCell id="lcggfKQUq6D2q7CxVZYy-62" value="AdditionalInfo" style="rounded=1;fillColor=#66B2FF;strokeColor=none;shadow=1;gradientColor=none;fontStyle=1;fontColor=#FFFFFF;fontSize=21&#xa;;" parent="1" vertex="1">
          <mxGeometry x="1400" y="600" width="200" height="60" as="geometry" />
        </mxCell>
        <mxCell id="lcggfKQUq6D2q7CxVZYy-65" style="edgeStyle=none;rounded=0;orthogonalLoop=1;jettySize=auto;html=1;entryX=0;entryY=0.75;entryDx=0;entryDy=0;" parent="1" edge="1">
          <mxGeometry relative="1" as="geometry">
            <mxPoint x="1400" y="317" as="sourcePoint" />
            <mxPoint x="1400" y="317" as="targetPoint" />
          </mxGeometry>
        </mxCell>
        <mxCell id="lcggfKQUq6D2q7CxVZYy-86" style="edgeStyle=none;rounded=0;orthogonalLoop=1;jettySize=auto;html=1;entryX=0.418;entryY=1;entryDx=0;entryDy=0;entryPerimeter=0;" parent="1" source="lcggfKQUq6D2q7CxVZYy-77" target="3" edge="1">
          <mxGeometry relative="1" as="geometry" />
        </mxCell>
        <mxCell id="lcggfKQUq6D2q7CxVZYy-77" value="ILine" style="rounded=1;fillColor=#10739E;strokeColor=none;shadow=1;gradientColor=none;fontStyle=1;fontColor=#FFFFFF;fontSize=21&#xa;;" parent="1" vertex="1">
          <mxGeometry x="220" y="518" width="220" height="70" as="geometry" />
        </mxCell>
        <mxCell id="lcggfKQUq6D2q7CxVZYy-87" style="edgeStyle=none;rounded=0;orthogonalLoop=1;jettySize=auto;html=1;entryX=0.5;entryY=1;entryDx=0;entryDy=0;" parent="1" source="lcggfKQUq6D2q7CxVZYy-78" target="3" edge="1">
          <mxGeometry relative="1" as="geometry" />
        </mxCell>
        <mxCell id="lcggfKQUq6D2q7CxVZYy-78" value="IVesselForShipCallList" style="rounded=1;fillColor=#10739E;strokeColor=none;shadow=1;gradientColor=none;fontStyle=1;fontColor=#FFFFFF;fontSize=21&#xa;;" parent="1" vertex="1">
          <mxGeometry x="540" y="518" width="300" height="70" as="geometry" />
        </mxCell>
        <mxCell id="lcggfKQUq6D2q7CxVZYy-85" style="edgeStyle=none;rounded=0;orthogonalLoop=1;jettySize=auto;html=1;exitX=0;exitY=0.5;exitDx=0;exitDy=0;entryX=0.89;entryY=1.067;entryDx=0;entryDy=0;entryPerimeter=0;" parent="1" source="lcggfKQUq6D2q7CxVZYy-79" target="2" edge="1">
          <mxGeometry relative="1" as="geometry" />
        </mxCell>
        <mxCell id="lcggfKQUq6D2q7CxVZYy-79" value="IPort" style="rounded=1;fillColor=#10739E;strokeColor=none;shadow=1;gradientColor=none;fontStyle=1;fontColor=#FFFFFF;fontSize=21&#xa;;" parent="1" vertex="1">
          <mxGeometry x="1390" y="690" width="220" height="70" as="geometry" />
        </mxCell>
        <mxCell id="lcggfKQUq6D2q7CxVZYy-84" style="edgeStyle=none;rounded=0;orthogonalLoop=1;jettySize=auto;html=1;exitX=0.5;exitY=0;exitDx=0;exitDy=0;entryX=0.5;entryY=1;entryDx=0;entryDy=0;" parent="1" source="lcggfKQUq6D2q7CxVZYy-82" target="lcggfKQUq6D2q7CxVZYy-79" edge="1">
          <mxGeometry relative="1" as="geometry" />
        </mxCell>
        <mxCell id="lcggfKQUq6D2q7CxVZYy-82" value="Name" style="rounded=1;fillColor=#66B2FF;strokeColor=none;shadow=1;gradientColor=none;fontStyle=1;fontColor=#FFFFFF;fontSize=21&#xa;;" parent="1" vertex="1">
          <mxGeometry x="1500" y="830" width="200" height="60" as="geometry" />
        </mxCell>
        <mxCell id="lcggfKQUq6D2q7CxVZYy-91" style="edgeStyle=none;rounded=0;orthogonalLoop=1;jettySize=auto;html=1;exitX=0.5;exitY=0;exitDx=0;exitDy=0;entryX=0.5;entryY=1;entryDx=0;entryDy=0;" parent="1" source="lcggfKQUq6D2q7CxVZYy-89" target="lcggfKQUq6D2q7CxVZYy-77" edge="1">
          <mxGeometry relative="1" as="geometry" />
        </mxCell>
        <mxCell id="lcggfKQUq6D2q7CxVZYy-89" value="Name" style="rounded=1;fillColor=#66B2FF;strokeColor=none;shadow=1;gradientColor=none;fontStyle=1;fontColor=#FFFFFF;fontSize=21&#xa;;" parent="1" vertex="1">
          <mxGeometry x="330" y="670" width="200" height="60" as="geometry" />
        </mxCell>
        <mxCell id="lcggfKQUq6D2q7CxVZYy-113" style="edgeStyle=none;rounded=0;orthogonalLoop=1;jettySize=auto;html=1;exitX=0;exitY=0.5;exitDx=0;exitDy=0;entryX=0.627;entryY=1;entryDx=0;entryDy=0;entryPerimeter=0;" parent="1" source="lcggfKQUq6D2q7CxVZYy-112" target="lcggfKQUq6D2q7CxVZYy-78" edge="1">
          <mxGeometry relative="1" as="geometry" />
        </mxCell>
        <mxCell id="lcggfKQUq6D2q7CxVZYy-112" value="Name" style="rounded=1;fillColor=#66B2FF;strokeColor=none;shadow=1;gradientColor=none;fontStyle=1;fontColor=#FFFFFF;fontSize=21&#xa;;" parent="1" vertex="1">
          <mxGeometry x="1077" y="1050" width="200" height="60" as="geometry" />
        </mxCell>
      </root>
    </mxGraphModel>
  </diagram>
</mxfile>
